<?xml version="1.0" ?><svg id="Слой_1" style="enable-background:new 0 0 200 200;" version="1.1" viewBox="0 0 200 200" xml:space="preserve" xmlns="http://www.w3.org/2000/svg" xmlns:xlink="http://www.w3.org/1999/xlink"><style type="text/css">
	.st0{fill:url(#SVGID_1_);}
	.st1{fill:url(#SVGID_2_);}
	.st2{fill:url(#SVGID_3_);}
	.st3{fill:url(#SVGID_4_);}
	.st4{fill:url(#SVGID_5_);}
</style><g><linearGradient gradientUnits="userSpaceOnUse" id="SVGID_1_" x1="68.0928" x2="83.4704" y1="157.8433" y2="157.8433"><stop offset="0" style="stop-color:#F7931E"/><stop offset="1" style="stop-color:#AF1259"/></linearGradient><circle class="st0" cx="75.8" cy="157.8" r="7.7"/><linearGradient gradientUnits="userSpaceOnUse" id="SVGID_2_" x1="51.4321" x2="59.842" y1="168.4288" y2="168.4288"><stop offset="0" style="stop-color:#F7931E"/><stop offset="1" style="stop-color:#AF1259"/></linearGradient><circle class="st1" cx="55.6" cy="168.4" r="4.2"/><linearGradient gradientUnits="userSpaceOnUse" id="SVGID_3_" x1="24.5712" x2="41.2379" y1="44.8387" y2="44.8387"><stop offset="0" style="stop-color:#F7931E"/><stop offset="1" style="stop-color:#AF1259"/></linearGradient><circle class="st2" cx="32.9" cy="44.8" r="8.3"/><linearGradient gradientUnits="userSpaceOnUse" id="SVGID_4_" x1="156.992" x2="165.9489" y1="50.6936" y2="50.6936"><stop offset="0" style="stop-color:#F7931E"/><stop offset="1" style="stop-color:#AF1259"/></linearGradient><circle class="st3" cx="161.5" cy="50.7" r="4.5"/><linearGradient gradientUnits="userSpaceOnUse" id="SVGID_5_" x1="13.3269" x2="183.8782" y1="97.9013" y2="97.9013"><stop offset="0" style="stop-color:#F7931E"/><stop offset="1" style="stop-color:#AF1259"/></linearGradient><path class="st4" d="M159,70.4c-5.2-3.1-9.2-8-11.1-13.8c-4.8-14.4-18.4-24.7-34.4-24.7c-5,0-9.7,1-14.1,2.8   c-6.7,2.8-14.4,2.7-20.9-0.6c-3.2-1.6-6.8-2.5-10.7-2.1c-8.6,0.7-15.9,7.2-17.6,15.7c0,0.1,0,0.2-0.1,0.4   c-1.1,5.8-5,10.5-10.4,12.8c-16.4,7-27.6,23.8-26.3,43c1.5,21.7,19.1,39.1,40.7,40.4c3.6,0.2,7.1,0,10.4-0.6   c13.6-2.5,27.4,1.3,38.3,9.7c8.9,6.9,20.2,10.9,32.5,10.5c26.6-0.9,48.1-22.8,48.5-49.4C184.2,95.7,174.1,79.2,159,70.4z M78,117.5   c0,0-7.7-0.3-11-0.3H52.3l-8.8,0.3v-2.4l3-0.6c2.1-0.4,2.8-1,2.8-2.7c0,0,0.2-5.6,0.2-14.8c0-9.3-0.2-14.9-0.2-14.9   c-0.2-1.9-0.7-2.4-2.8-2.8l-3-0.6v-2.4l8.8,0.3h16.5c3.3,0,8.8-0.6,8.8-0.6s-0.3,3.5-0.7,11.7h-2.2L73.8,85   c-0.9-3.6-2.1-5.5-4.4-5.5H56.6c-1,0-1,0.3-1,0.9v15.1c0,0,5.8,0.1,8.3-0.2c2.2-0.2,2.5-0.6,3-2.8l0.8-3.3h2.4l-0.3,7.4l0.2,7.4   h-2.4l-0.7-2.9c-0.5-2.2-1.5-2.6-3-2.8c-2.1-0.2-8.3-0.2-8.3-0.2V111c0,2.4,1.3,3.5,4.2,3.5h8.4c2.8,0,5.3-0.3,7.1-4.2l2.2-5h2.1   C79.3,106.3,78.1,115.5,78,117.5z M93,118.1c-4.3,0-7.5-2.4-7.5-7.2V93.6h-5v-2.1c0.7-0.1,2.4-0.4,4-1.6c2.8-1.8,3.5-4.5,4.3-8   l2.4,0.1v8.5l8.8-0.3L99.6,94l-8.3-0.6v15.2c0,4.3,1.3,6,3.8,6c2.2,0,4-1.4,4.6-2.4l1.2,1.5C99.7,116.7,96.3,118.1,93,118.1z    M113.1,118c-4.3,0-8.6-1.6-8.6-1.6c0.1-0.7,0.2-2.1,0.2-3.6c0-1.5-0.1-3-0.2-4.3l2.1-0.1l1.6,4c0.6,1.6,2.2,3.3,5.3,3.3   c3.4,0,4.9-1.7,4.9-4.2c0-6.9-13.8-5-13.8-14.4c0-5.4,4.4-7.8,9.9-7.8c2.4,0,6.1,0.5,7.9,1.2c-0.3,2.1-0.4,4.7-0.6,6.9l-2.1,0.1   l-1.4-4.2c-0.3-1.1-2-1.8-4-1.8c-2.6,0-4.9,1-4.9,3.6c0,6.3,14.1,4.9,14.1,14.4C123.6,115.2,118.9,118,113.1,118z M156.5,92   l-1.2,0.4c-2.1,0.8-2.4,1-3.1,2.7l-9,21.3c-5.4,12.8-11.3,13.3-15.1,13.3c-1.9,0-4.2-0.6-5.6-1.6c0.6-2.4,1.1-5.2,1.5-7.8l2.4-0.1   l0.8,4.4c0.2,1.1,1,1.7,2.5,1.7c3,0,6.3-1.7,9.2-7.6c-2.9-7.4-5.1-13.2-9.6-23.6c-0.8-2-1.2-2.4-2.6-2.8l-1-0.3v-2l6.1,0.3l7.7-0.3   v2l-1.8,0.4c-1.3,0.3-2,1-2,1.9c0,0.3,0.1,0.6,0.2,0.9c0.5,1.6,3.8,10.6,6.2,16.7c2-4.4,5.9-13.8,6.6-15.7c0.3-0.8,0.4-1.3,0.4-1.8   c0-1-0.7-1.6-2.1-2l-1.5-0.4v-2l5.7,0.3l5.3-0.3V92z"/></g></svg>